<svg width="16" height="16" viewBox="0 0 25 25" fill="none" xmlns="http://www.w3.org/2000/svg">
<g clip-path="url(#clip0_180_72)">
<path d="M23.718 20.2385L20.4675 16.9879L17.9247 19.5317L16.4848 18.0918L19.0276 15.548L17.5876 14.1081L15.0449 16.6509L13.6049 15.2109L16.1477 12.6682L14.7078 11.2282L12.165 13.771L10.7251 12.3311L13.2679 9.78832L11.8279 8.3484L9.28516 10.8922L7.84524 9.45227L10.388 6.90847L8.89514 5.4156L6.35236 7.95837L4.91244 6.51845L7.45522 3.97567L4.2047 0.725152C3.49797 0.0184289 2.44501 -0.190329 1.52241 0.191546C0.598777 0.573421 0.00305176 1.46548 0.00305176 2.46548V24.4401H21.9777C22.9767 24.4401 23.8687 23.8434 24.2516 22.9207C24.6345 21.9981 24.4247 20.9452 23.718 20.2385ZM6.11305 18.3301V12.8168L11.6263 18.3301H6.11305Z" fill="white"/>
</g>
<defs>
<clipPath id="clip0_180_72">
<rect width="24.44" height="24.44" fill="white"/>
</clipPath>
</defs>
</svg>
