<svg width="16" height="16" viewBox="0 0 25 25" fill="none" xmlns="http://www.w3.org/2000/svg">
<g clip-path="url(#clip0_180_82)">
<path d="M7.12832 6.11H23.4217C23.6917 6.11 23.9507 6.00271 24.1417 5.81174C24.3327 5.62076 24.44 5.36175 24.44 5.09167C24.44 4.82159 24.3327 4.56257 24.1417 4.3716C23.9507 4.18062 23.6917 4.07333 23.4217 4.07333H7.12832C6.85824 4.07333 6.59922 4.18062 6.40825 4.3716C6.21727 4.56257 6.10999 4.82159 6.10999 5.09167C6.10999 5.36175 6.21727 5.62076 6.40825 5.81174C6.59922 6.00271 6.85824 6.11 7.12832 6.11Z" fill="white"/>
<path d="M23.4217 11.2017H7.12832C6.85824 11.2017 6.59922 11.3089 6.40825 11.4999C6.21727 11.6909 6.10999 11.9499 6.10999 12.22C6.10999 12.4901 6.21727 12.7491 6.40825 12.9401C6.59922 13.131 6.85824 13.2383 7.12832 13.2383H23.4217C23.6917 13.2383 23.9507 13.131 24.1417 12.9401C24.3327 12.7491 24.44 12.4901 24.44 12.22C24.44 11.9499 24.3327 11.6909 24.1417 11.4999C23.9507 11.3089 23.6917 11.2017 23.4217 11.2017Z" fill="white"/>
<path d="M23.4217 18.33H7.12832C6.85824 18.33 6.59922 18.4373 6.40825 18.6282C6.21727 18.8192 6.10999 19.0782 6.10999 19.3483C6.10999 19.6184 6.21727 19.8774 6.40825 20.0684C6.59922 20.2594 6.85824 20.3667 7.12832 20.3667H23.4217C23.6917 20.3667 23.9507 20.2594 24.1417 20.0684C24.3327 19.8774 24.44 19.6184 24.44 19.3483C24.44 19.0782 24.3327 18.8192 24.1417 18.6282C23.9507 18.4373 23.6917 18.33 23.4217 18.33Z" fill="white"/>
<path d="M2.03667 7.12833C3.16149 7.12833 4.07333 6.21648 4.07333 5.09166C4.07333 3.96684 3.16149 3.05499 2.03667 3.05499C0.911847 3.05499 0 3.96684 0 5.09166C0 6.21648 0.911847 7.12833 2.03667 7.12833Z" fill="white"/>
<path d="M2.03667 14.2567C3.16149 14.2567 4.07333 13.3448 4.07333 12.22C4.07333 11.0952 3.16149 10.1833 2.03667 10.1833C0.911847 10.1833 0 11.0952 0 12.22C0 13.3448 0.911847 14.2567 2.03667 14.2567Z" fill="white"/>
<path d="M2.03667 21.385C3.16149 21.385 4.07333 20.4732 4.07333 19.3483C4.07333 18.2235 3.16149 17.3117 2.03667 17.3117C0.911847 17.3117 0 18.2235 0 19.3483C0 20.4732 0.911847 21.385 2.03667 21.385Z" fill="white"/>
</g>
<defs>
<clipPath id="clip0_180_82">
<rect width="24.44" height="24.44" fill="white"/>
</clipPath>
</defs>
</svg>
