<svg width="19" height="19" viewBox="0 0 21 22" fill="none" xmlns="http://www.w3.org/2000/svg">
<g clip-path="url(#clip0_157_10)">
<path d="M15.392 14.1076C16.6606 12.3245 17.2287 10.1138 16.9828 7.91773C16.737 5.72167 15.6952 3.70221 14.0659 2.26338C12.4367 0.824546 10.3401 0.0724559 8.19561 0.157572C6.05114 0.242688 4.01694 1.15873 2.49999 2.72244C0.983044 4.28615 0.095209 6.38219 0.0141134 8.59124C-0.0669822 10.8003 0.664642 12.9594 2.06261 14.6367C3.46059 16.3139 5.42181 17.3856 7.55391 17.6373C9.68602 17.889 11.8318 17.3022 13.5619 15.9942H13.5606C13.5999 16.0482 13.6418 16.0994 13.6889 16.1494L18.7327 21.3449C18.9783 21.5981 19.3116 21.7404 19.6591 21.7406C20.0066 21.7407 20.34 21.5986 20.5858 21.3456C20.8316 21.0925 20.9698 20.7493 20.9699 20.3913C20.97 20.0333 20.8321 19.6899 20.5864 19.4367L15.5427 14.2412C15.4958 14.1924 15.4455 14.1486 15.392 14.1076ZM15.73 8.9202C15.73 9.89489 15.5437 10.86 15.1815 11.7605C14.8194 12.661 14.2887 13.4792 13.6196 14.1685C12.9505 14.8577 12.1562 15.4044 11.282 15.7774C10.4078 16.1504 9.47087 16.3424 8.52465 16.3424C7.57842 16.3424 6.64147 16.1504 5.76727 15.7774C4.89307 15.4044 4.09876 14.8577 3.42968 14.1685C2.7606 13.4792 2.22985 12.661 1.86775 11.7605C1.50564 10.86 1.31927 9.89489 1.31927 8.9202C1.31927 6.95172 2.07841 5.06387 3.42968 3.67194C4.78095 2.28002 6.61366 1.49804 8.52465 1.49804C10.4356 1.49804 12.2683 2.28002 13.6196 3.67194C14.9709 5.06387 15.73 6.95172 15.73 8.9202Z" fill="#C6C6C6"/>
</g>
<defs>
<clipPath id="clip0_157_10">
<rect width="20.9611" height="21.5917" fill="white" transform="translate(0.00915527 0.148743)"/>
</clipPath>
</defs>
</svg>
