<svg width="20" height="20" viewBox="0 0 25 25" fill="none" xmlns="http://www.w3.org/2000/svg">
<g clip-path="url(#clip0_180_107)">
<path fill-rule="evenodd" clip-rule="evenodd" d="M9.10625 15.8937C8.95974 15.7473 8.76107 15.665 8.55391 15.665C8.34675 15.665 8.14807 15.7473 8.00156 15.8937L1.60156 22.2937V17.9688C1.60156 17.7615 1.51925 17.5628 1.37274 17.4163C1.22623 17.2698 1.02751 17.1875 0.820312 17.1875C0.613112 17.1875 0.414398 17.2698 0.267885 17.4163C0.121373 17.5628 0.0390625 17.7615 0.0390625 17.9688V24.1797C0.0390625 24.3869 0.121373 24.5856 0.267885 24.7321C0.414398 24.8786 0.613112 24.9609 0.820312 24.9609H7.03125C7.23845 24.9609 7.43716 24.8786 7.58368 24.7321C7.73019 24.5856 7.8125 24.3869 7.8125 24.1797C7.8125 23.9725 7.73019 23.7738 7.58368 23.6273C7.43716 23.4807 7.23845 23.3984 7.03125 23.3984H2.70625L9.10625 16.9984C9.25271 16.8519 9.33499 16.6533 9.33499 16.4461C9.33499 16.2389 9.25271 16.0403 9.10625 15.8937ZM15.8937 15.8937C16.0403 15.7473 16.2389 15.665 16.4461 15.665C16.6533 15.665 16.8519 15.7473 16.9984 15.8937L23.3984 22.2937V17.9688C23.3984 17.7615 23.4807 17.5628 23.6273 17.4163C23.7738 17.2698 23.9725 17.1875 24.1797 17.1875C24.3869 17.1875 24.5856 17.2698 24.7321 17.4163C24.8786 17.5628 24.9609 17.7615 24.9609 17.9688V24.1797C24.9609 24.3869 24.8786 24.5856 24.7321 24.7321C24.5856 24.8786 24.3869 24.9609 24.1797 24.9609H17.9688C17.7615 24.9609 17.5628 24.8786 17.4163 24.7321C17.2698 24.5856 17.1875 24.3869 17.1875 24.1797C17.1875 23.9725 17.2698 23.7738 17.4163 23.6273C17.5628 23.4807 17.7615 23.3984 17.9688 23.3984H22.2937L15.8937 16.9984C15.7473 16.8519 15.665 16.6533 15.665 16.4461C15.665 16.2389 15.7473 16.0403 15.8937 15.8937ZM15.8937 9.10625C16.0403 9.25271 16.2389 9.33499 16.4461 9.33499C16.6533 9.33499 16.8519 9.25271 16.9984 9.10625L23.3984 2.70625V7.03125C23.3984 7.23845 23.4807 7.43716 23.6273 7.58368C23.7738 7.73019 23.9725 7.8125 24.1797 7.8125C24.3869 7.8125 24.5856 7.73019 24.7321 7.58368C24.8786 7.43716 24.9609 7.23845 24.9609 7.03125V0.820312C24.9609 0.613112 24.8786 0.414398 24.7321 0.267885C24.5856 0.121373 24.3869 0.0390625 24.1797 0.0390625H17.9688C17.7615 0.0390625 17.5628 0.121373 17.4163 0.267885C17.2698 0.414398 17.1875 0.613112 17.1875 0.820312C17.1875 1.02751 17.2698 1.22623 17.4163 1.37274C17.5628 1.51925 17.7615 1.60156 17.9688 1.60156H22.2937L15.8937 8.00156C15.7473 8.14807 15.665 8.34675 15.665 8.55391C15.665 8.76107 15.7473 8.95974 15.8937 9.10625ZM9.10625 9.10625C8.95974 9.25271 8.76107 9.33499 8.55391 9.33499C8.34675 9.33499 8.14807 9.25271 8.00156 9.10625L1.60156 2.70625V7.03125C1.60156 7.23845 1.51925 7.43716 1.37274 7.58368C1.22623 7.73019 1.02751 7.8125 0.820312 7.8125C0.613112 7.8125 0.414398 7.73019 0.267885 7.58368C0.121373 7.43716 0.0390625 7.23845 0.0390625 7.03125V0.820312C0.0390625 0.613112 0.121373 0.414398 0.267885 0.267885C0.414398 0.121373 0.613112 0.0390625 0.820312 0.0390625H7.03125C7.23845 0.0390625 7.43716 0.121373 7.58368 0.267885C7.73019 0.414398 7.8125 0.613112 7.8125 0.820312C7.8125 1.02751 7.73019 1.22623 7.58368 1.37274C7.43716 1.51925 7.23845 1.60156 7.03125 1.60156H2.70625L9.10625 8.00156C9.25271 8.14807 9.33499 8.34675 9.33499 8.55391C9.33499 8.76107 9.25271 8.95974 9.10625 9.10625Z" fill="white"/>
</g>
<defs>
<clipPath id="clip0_180_107">
<rect width="25" height="25" fill="white"/>
</clipPath>
</defs>
</svg>
