<svg width="16" height="16" viewBox="0 0 25 25" fill="none" xmlns="http://www.w3.org/2000/svg">
<g clip-path="url(#clip0_180_76)">
<path d="M1.54272 11.1763L12.22 17.5836L22.8972 11.1763C23.1288 11.0373 23.4061 10.9961 23.6681 11.0616C23.9301 11.1271 24.1554 11.294 24.2943 11.5256C24.4333 11.7572 24.4745 12.0345 24.409 12.2965C24.3435 12.5585 24.1766 12.7838 23.945 12.9227L12.7434 19.6437C12.585 19.7389 12.4037 19.7892 12.2189 19.7892C12.0342 19.7892 11.8529 19.7389 11.6945 19.6437L0.492823 12.9227C0.26123 12.7838 0.0943241 12.5585 0.02882 12.2965C-0.036684 12.0345 0.00458145 11.7572 0.143536 11.5256C0.282492 11.294 0.507755 11.1271 0.769772 11.0616C1.03179 10.9961 1.3091 11.0373 1.54069 11.1763H1.54272Z" fill="white"/>
<path d="M1.54273 15.828L12.22 22.2344L22.8972 15.828C23.0119 15.7592 23.139 15.7137 23.2712 15.694C23.4035 15.6743 23.5384 15.6809 23.6681 15.7133C23.7978 15.7457 23.9199 15.8034 24.0274 15.883C24.1348 15.9626 24.2255 16.0626 24.2943 16.1773C24.3631 16.292 24.4087 16.4191 24.4284 16.5514C24.448 16.6836 24.4415 16.8185 24.409 16.9482C24.3435 17.2102 24.1766 17.4355 23.945 17.5745L12.7434 24.2955C12.585 24.3906 12.4037 24.4409 12.2189 24.4409C12.0342 24.4409 11.8529 24.3906 11.6945 24.2955L0.492826 17.5745C0.261234 17.4355 0.0943279 17.2102 0.0288239 16.9482C-0.0366802 16.6862 0.00458527 16.4089 0.143541 16.1773C0.282495 15.9457 0.507759 15.7788 0.769775 15.7133C1.03179 15.6478 1.3091 15.6891 1.54069 15.828H1.54273Z" fill="white"/>
<path d="M23.9459 8.51028L13.7788 14.6111C13.3081 14.8943 12.7691 15.0439 12.2198 15.0439C11.6704 15.0439 11.1314 14.8943 10.6607 14.6111L0.493668 8.51028C0.343105 8.41974 0.218525 8.2918 0.132038 8.13887C0.0455513 7.98595 9.91821e-05 7.81325 9.91821e-05 7.63757C9.91821e-05 7.46188 0.0455513 7.28918 0.132038 7.13626C0.218525 6.98334 0.343105 6.85539 0.493668 6.76486L10.6607 0.664019C11.1316 0.381156 11.6705 0.23172 12.2198 0.23172C12.7691 0.23172 13.308 0.381156 13.7788 0.664019L23.9459 6.76486C24.0964 6.85539 24.221 6.98334 24.3075 7.13626C24.394 7.28918 24.4395 7.46188 24.4395 7.63757C24.4395 7.81325 24.394 7.98595 24.3075 8.13887C24.221 8.2918 24.0964 8.41974 23.9459 8.51028Z" fill="white"/>
</g>
<defs>
<clipPath id="clip0_180_76">
<rect width="24.44" height="24.44" fill="white" transform="matrix(-1 0 0 1 24.4399 6.10352e-05)"/>
</clipPath>
</defs>
</svg>
