<svg width="19" height="19" viewBox="0 0 22 21" fill="none" xmlns="http://www.w3.org/2000/svg">
<g clip-path="url(#clip0_180_103)">
<path d="M19.9056 9.37335H18.4902C18.2224 7.84393 17.4726 6.43317 16.3445 5.33614C15.2163 4.23912 13.7655 3.51003 12.1927 3.24969V1.87335C12.1927 1.54183 12.0572 1.22389 11.8162 0.989469C11.5751 0.755048 11.2481 0.623352 10.9072 0.623352C10.5663 0.623352 10.2393 0.755048 9.99822 0.989469C9.75715 1.22389 9.62172 1.54183 9.62172 1.87335V3.24969C8.04888 3.51003 6.59808 4.23912 5.46991 5.33614C4.34175 6.43317 3.59197 7.84393 3.32423 9.37335H1.90883C1.5679 9.37335 1.24093 9.50505 0.999861 9.73947C0.758786 9.97389 0.623352 10.2918 0.623352 10.6234C0.623352 10.9549 0.758786 11.2728 0.999861 11.5072C1.24093 11.7417 1.5679 11.8734 1.90883 11.8734H3.32423C3.59197 13.4028 4.34175 14.8135 5.46991 15.9106C6.59808 17.0076 8.04888 17.7367 9.62172 17.997V19.3734C9.62172 19.7049 9.75715 20.0228 9.99822 20.2572C10.2393 20.4917 10.5663 20.6234 10.9072 20.6234C11.2481 20.6234 11.5751 20.4917 11.8162 20.2572C12.0572 20.0228 12.1927 19.7049 12.1927 19.3734V17.997C13.7655 17.7367 15.2163 17.0076 16.3445 15.9106C17.4726 14.8135 18.2224 13.4028 18.4902 11.8734H19.9056C20.2465 11.8734 20.5735 11.7417 20.8145 11.5072C21.0556 11.2728 21.191 10.9549 21.191 10.6234C21.191 10.2918 21.0556 9.97389 20.8145 9.73947C20.5735 9.50505 20.2465 9.37335 19.9056 9.37335ZM10.9072 15.6234C9.89022 15.6234 8.89608 15.3301 8.0505 14.7807C7.20491 14.2313 6.54586 13.4504 6.15668 12.5368C5.7675 11.6231 5.66567 10.6178 5.86408 9.6479C6.06248 8.678 6.5522 7.78708 7.27131 7.08782C7.99042 6.38856 8.90662 5.91235 9.90406 5.71943C10.9015 5.5265 11.9354 5.62552 12.8749 6.00395C13.8145 6.38239 14.6175 7.02325 15.1825 7.8455C15.7476 8.66775 16.0491 9.63445 16.0491 10.6234C16.0478 11.949 15.5056 13.22 14.5416 14.1574C13.5776 15.0948 12.2705 15.622 10.9072 15.6234Z" fill="#132B58"/>
<path d="M10.9072 8.12335C10.3987 8.12335 9.90165 8.26997 9.47886 8.54468C9.05606 8.81938 8.72654 9.20983 8.53195 9.66664C8.33736 10.1235 8.28644 10.6261 8.38564 11.1111C8.48485 11.596 8.72971 12.0415 9.08926 12.3911C9.44882 12.7408 9.90692 12.9789 10.4056 13.0753C10.9044 13.1718 11.4213 13.1223 11.8911 12.9331C12.3609 12.7438 12.7624 12.4234 13.0449 12.0123C13.3274 11.6012 13.4782 11.1178 13.4782 10.6234C13.4773 9.96058 13.2061 9.32519 12.7242 8.85654C12.2422 8.38789 11.5888 8.12422 10.9072 8.12335Z" fill="#132B58"/>
</g>
<defs>
<clipPath id="clip0_180_103">
<rect width="20.5677" height="20" fill="#132B58" transform="translate(0.623352 0.623352)"/>
</clipPath>
</defs>
</svg>
