<svg width="16" height="16" viewBox="0 0 21 20" fill="none" xmlns="http://www.w3.org/2000/svg">
<path d="M11.8695 0.646238C11.6776 0.454304 11.4498 0.302051 11.199 0.198174C10.9483 0.0942977 10.6796 0.0408325 10.4082 0.0408325C10.1368 0.0408325 9.86803 0.0942977 9.6173 0.198174C9.36657 0.302051 9.13875 0.454304 8.94687 0.646238L0.489807 9.10413V17.0554C0.489807 17.713 0.751049 18.3437 1.21606 18.8087C1.68108 19.2737 2.31177 19.5349 2.9694 19.5349H17.847C18.5046 19.5349 19.1353 19.2737 19.6003 18.8087C20.0653 18.3437 20.3265 17.713 20.3265 17.0554V9.10413L11.8695 0.646238ZM17.847 17.0554H13.7143V14.4253C13.7143 13.5884 13.3818 12.7857 12.79 12.1939C12.1982 11.6021 11.3955 11.2696 10.5586 11.2696H10.2577C9.4208 11.2696 8.61814 11.6021 8.02633 12.1939C7.43453 12.7857 7.10205 13.5884 7.10205 14.4253V17.0554H2.9694V10.1307L10.4082 2.6919L17.847 10.1307V17.0554Z" fill="#132B58"/>
</svg>
