<svg width="16" height="16" viewBox="0 0 25 25" fill="none" xmlns="http://www.w3.org/2000/svg">
<path fill-rule="evenodd" clip-rule="evenodd" d="M7.12833 7.12835C7.12833 4.3163 9.40795 2.03668 12.22 2.03668C15.032 2.03668 17.3117 4.3163 17.3117 7.12835C17.3117 9.59166 15.5624 11.6464 13.2383 12.1182V17.3117C13.2383 17.8741 12.7824 18.33 12.22 18.33C11.6576 18.33 11.2017 17.8741 11.2017 17.3117V12.1182C8.87758 11.6464 7.12833 9.59166 7.12833 7.12835ZM9.66255 16.396C9.74722 16.952 9.36514 17.4714 8.80914 17.556C7.50841 17.7541 6.47417 18.0536 5.79509 18.3862C5.45405 18.5532 5.25138 18.7052 5.14684 18.8155C5.13853 18.8242 5.13123 18.8323 5.12482 18.8397C5.15854 18.8788 5.21756 18.9364 5.31867 19.0111C5.60377 19.2218 6.08141 19.4544 6.76317 19.6674C8.11458 20.0897 10.044 20.3667 12.22 20.3667C14.396 20.3667 16.3254 20.0897 17.6768 19.6674C18.3586 19.4544 18.8362 19.2218 19.1213 19.0111C19.2225 18.9364 19.2814 18.8788 19.3151 18.8397C19.3087 18.8323 19.3015 18.8242 19.2931 18.8155C19.1886 18.7052 18.9859 18.5532 18.6449 18.3862C17.9658 18.0536 16.9316 17.7541 15.6309 17.556C15.0749 17.4714 14.6928 16.952 14.7774 16.396C14.8621 15.84 15.3815 15.4579 15.9374 15.5425C17.3498 15.7576 18.6069 16.0998 19.5407 16.5572C20.0062 16.7851 20.4405 17.0653 20.7712 17.4142C21.1067 17.7681 21.385 18.2494 21.385 18.8392C21.385 19.6655 20.8511 20.2654 20.3316 20.6492C19.7922 21.0477 19.0768 21.3637 18.2843 21.6114C16.6872 22.1105 14.5433 22.4033 12.22 22.4033C9.89665 22.4033 7.7528 22.1105 6.15569 21.6114C5.3632 21.3637 4.64779 21.0477 4.1084 20.6492C3.58895 20.2654 3.05499 19.6655 3.05499 18.8392C3.05499 18.2494 3.33333 17.7681 3.66879 17.4142C3.99955 17.0653 4.4338 16.7851 4.89925 16.5572C5.83316 16.0998 7.09017 15.7576 8.50252 15.5425C9.05852 15.4579 9.57789 15.84 9.66255 16.396Z" fill="white"/>
</svg>
