<svg width="16" height="16" viewBox="0 0 21 21" fill="none" xmlns="http://www.w3.org/2000/svg">
<path d="M18.7908 9.05609H11.2908V1.55609C11.2908 0.86574 10.7312 0.306091 10.0408 0.306091C9.35048 0.306091 8.79083 0.86574 8.79083 1.55609V9.05609H1.29083C0.600481 9.05609 0.0408325 9.61574 0.0408325 10.3061C0.0408325 10.9964 0.600481 11.5561 1.29083 11.5561H8.79083V19.0561C8.79083 19.7464 9.35048 20.3061 10.0408 20.3061C10.7312 20.3061 11.2908 19.7464 11.2908 19.0561V11.5561H18.7908C19.4812 11.5561 20.0408 10.9964 20.0408 10.3061C20.0408 9.61574 19.4812 9.05609 18.7908 9.05609Z" fill="#132B58"/>
</svg>
